<?xml version="1.0" encoding="UTF-8" standalone="no"?>
<svg
   xmlns:dc="http://purl.org/dc/elements/1.1/"
   xmlns:cc="http://creativecommons.org/ns#"
   xmlns:rdf="http://www.w3.org/1999/02/22-rdf-syntax-ns#"
   xmlns:svg="http://www.w3.org/2000/svg"
   xmlns="http://www.w3.org/2000/svg"
   xmlns:sodipodi="http://sodipodi.sourceforge.net/DTD/sodipodi-0.dtd"
   xmlns:inkscape="http://www.inkscape.org/namespaces/inkscape"
   version="1.1"
   id="svg2"
   viewBox="0 0 399.99998 399.99998"
   height="400"
   width="400"
   inkscape:version="0.91 r13725"
   sodipodi:docname="github.svg">
  <sodipodi:namedview
     pagecolor="#ffffff"
     bordercolor="#666666"
     borderopacity="1"
     objecttolerance="10"
     gridtolerance="10"
     guidetolerance="10"
     inkscape:pageopacity="0"
     inkscape:pageshadow="2"
     inkscape:window-width="1920"
     inkscape:window-height="1011"
     id="namedview11"
     showgrid="false"
     inkscape:zoom="0.834386"
     inkscape:cx="55.58066"
     inkscape:cy="230.33562"
     inkscape:window-x="1600"
     inkscape:window-y="32"
     inkscape:window-maximized="1"
     inkscape:current-layer="layer1" />
  <defs
     id="defs4" />
  <metadata
     id="metadata7">
    <rdf:RDF>
      <cc:Work
         rdf:about="">
        <dc:format>image/svg+xml</dc:format>
        <dc:type
           rdf:resource="http://purl.org/dc/dcmitype/StillImage" />
        <dc:title />
      </cc:Work>
    </rdf:RDF>
  </metadata>
  <g
     transform="translate(-508.57143,-142.9337)"
     id="layer1">
    <path
       d="m 567.74031,484.77617 c -50.66737,-50.31042 -70.64565,-123.82988 -52.40924,-192.86431 18.23641,-69.03444 71.91699,-123.09588 140.82077,-141.8199 68.90378,-18.72402 142.56265,0.734 193.23002,51.04442 l -4.38011,272.32835 z"
       id="path4144"
       style="fill:#484848;fill-opacity:1;fill-rule:nonzero;stroke:none;stroke-width:0.28299996;stroke-miterlimit:4;stroke-dasharray:none;stroke-opacity:1"
       inkscape:connector-curvature="0"
       sodipodi:nodetypes="cssccc" />
    <path
       transform="matrix(0.70460278,-0.70960194,0.70960194,0.70460278,0,0)"
       d="m 455.76974,744.42596 a 199.85835,199.85835 0 0 1 -99.92917,173.08242 199.85835,199.85835 0 0 1 -199.85836,-10e-6 199.85835,199.85835 0 0 1 -99.92917,-173.08241 l 199.85835,0 z"
       id="path4144-8"
       style="fill:#3a3a3a;fill-opacity:1;fill-rule:nonzero;stroke:none;stroke-width:0.28299996;stroke-miterlimit:4;stroke-dasharray:none;stroke-opacity:1" />
    <path
       id="path4479"
       d=""
       style="fill:#000000" />
    <path
       id="path4477"
       d=""
       style="fill:#000000" />
    <path
       style="fill:#ffffff;fill-opacity:1"
       d="m 610.30595,370.56321 c -0.86681,-0.86682 -0.86681,-1.73362 0,-2.60043 1.73362,-1.73362 3.90063,-2.38373 6.50106,-1.95033 2.60043,0.43341 4.11734,0.86681 4.55075,1.30022 3.03383,1.30021 6.39266,4.22575 10.07648,8.77661 3.68383,4.55085 6.60936,7.69308 8.77661,9.4267 10.4017,8.6681 21.02012,9.31821 31.85522,1.95033 0.86682,-3.03384 2.27532,-5.63426 4.22553,-7.80128 1.95021,-2.16703 3.79224,-3.68394 5.52608,-4.55074 1.73384,-0.86682 4.76767,-2.16703 9.10149,-3.90065 -14.30235,-1.30021 -25.89597,-3.79234 -34.78088,-7.47639 -8.88489,-3.68405 -15.92777,-8.34309 -21.12863,-13.97712 -6.93447,-7.80129 -11.16022,-17.98629 -12.67724,-30.55501 -1.51703,-12.56874 -0.54182,-24.05395 2.92564,-34.45566 2.60043,-6.50107 6.28436,-12.35202 11.05181,-17.55288 -3.46723,-10.83511 -2.81712,-23.18714 1.95033,-37.05608 13.86893,0.86682 26.43767,5.63427 37.70618,14.30235 21.67023,-5.63425 44.20726,-5.85096 67.61112,-0.6501 3.03382,-2.16703 7.69287,-4.87586 13.97712,-8.1265 6.28425,-3.25064 14.19393,-5.09267 23.72903,-5.52608 1.73362,4.76745 2.92553,10.40171 3.57575,16.90277 0.65021,6.50107 0.32522,12.56874 -0.975,18.20299 9.9683,10.40171 15.16916,24.27065 15.60257,41.60683 0,13.86894 -2.38373,25.35415 -7.15118,34.45565 -4.76745,9.10149 -13.21882,16.68606 -25.35413,22.75373 -8.23468,3.90064 -19.06979,6.28436 -32.50534,7.15117 6.06767,3.03382 10.51012,6.17606 13.32736,9.42671 2.81724,3.25064 4.65926,8.34309 5.52608,15.27734 l 0,20.47852 0.6501,19.82843 c 1.30021,2.16702 2.81713,4.00904 4.55075,5.52606 1.73362,1.51703 3.25053,2.60055 4.55075,3.25054 1.30021,0.65 1.73361,1.62521 1.30021,2.92566 -0.4334,1.30043 -2.16702,1.95053 -5.20085,1.95031 -7.36787,0 -13.21884,-2.60043 -17.55288,-7.80128 -1.30021,-2.16702 -1.95033,-4.76745 -1.95033,-7.80128 l 0,-31.20512 c 0,-3.46723 -0.8668,-5.95937 -2.60042,-7.47639 -1.73362,-1.51703 -3.46723,-2.49224 -5.20085,-2.92565 l 0,40.95672 c 0,7.36788 0.8668,12.13533 2.60042,14.30234 1.73362,2.16703 2.81713,4.33405 3.25053,6.50107 0.43341,0.43341 0.10841,0.75841 -0.97499,0.975 -1.08339,0.2166 -2.92542,-0.10841 -5.52607,-0.975 -5.63426,-1.30021 -9.5349,-4.22575 -11.70192,-8.7766 -2.16703,-4.55086 -3.25053,-9.42671 -3.25053,-14.62757 l 0,-40.30662 -8.4514,0 0,40.30662 c 0,5.20086 -1.08351,10.18501 -3.25054,14.95246 -3.03383,6.06766 -8.66809,9.31819 -16.90276,9.7516 -1.30023,-0.43341 -1.95033,-0.86681 -1.95033,-1.30022 0.4334,-0.4334 1.73362,-2.60043 3.90064,-6.50107 0.4334,-0.8668 0.97522,-2.60042 1.62543,-5.20085 0.65022,-2.60043 0.97522,-5.63426 0.975,-9.10149 l 0,-40.95672 c -1.73362,0.43341 -3.35894,1.40862 -4.87596,2.92564 -1.51703,1.51703 -2.27555,4.00916 -2.27555,7.47639 l 0,31.20513 c 0,3.03383 -0.65011,5.63425 -1.95032,7.80127 -3.90064,5.20086 -9.7516,7.80129 -17.55288,7.80129 -3.03383,0 -4.76745,-0.6501 -5.20086,-1.95033 -0.4334,-0.8668 -0.32499,-1.62532 0.32522,-2.27553 0.65022,-0.65022 1.62544,-1.40873 2.92565,-2.27555 1.30022,-0.8668 2.16702,-1.51691 2.60043,-1.95032 1.73362,-1.30021 3.03383,-3.03383 3.90063,-5.20084 1.30022,-1.73362 1.62521,-6.28436 0.975,-13.65225 -0.65022,-7.36787 -0.75862,-12.13532 -0.32522,-14.30235 -11.26851,3.90065 -22.75373,1.95033 -34.45565,-5.85095 -3.46723,-3.46724 -6.93447,-8.45139 -10.40171,-14.95246 -2.60043,-4.76744 -7.80128,-10.40171 -15.60255,-16.90276 z"
       id="path5165" />
  </g>
</svg>
