<?xml version="1.0" encoding="UTF-8" standalone="no"?>
<svg
   xmlns:dc="http://purl.org/dc/elements/1.1/"
   xmlns:cc="http://creativecommons.org/ns#"
   xmlns:rdf="http://www.w3.org/1999/02/22-rdf-syntax-ns#"
   xmlns:svg="http://www.w3.org/2000/svg"
   xmlns="http://www.w3.org/2000/svg"
   xmlns:sodipodi="http://sodipodi.sourceforge.net/DTD/sodipodi-0.dtd"
   xmlns:inkscape="http://www.inkscape.org/namespaces/inkscape"
   version="1.1"
   id="svg2"
   viewBox="0 0 399.99998 399.99998"
   height="400"
   width="400"
   inkscape:version="0.91 r13725"
   sodipodi:docname="linkedin.svg">
  <sodipodi:namedview
     pagecolor="#ffffff"
     bordercolor="#666666"
     borderopacity="1"
     objecttolerance="10"
     gridtolerance="10"
     guidetolerance="10"
     inkscape:pageopacity="0"
     inkscape:pageshadow="2"
     inkscape:window-width="1920"
     inkscape:window-height="1011"
     id="namedview16"
     showgrid="false"
     inkscape:zoom="0.59"
     inkscape:cx="22.881356"
     inkscape:cy="200"
     inkscape:window-x="1600"
     inkscape:window-y="32"
     inkscape:window-maximized="1"
     inkscape:current-layer="layer1" />
  <defs
     id="defs4" />
  <metadata
     id="metadata7">
    <rdf:RDF>
      <cc:Work
         rdf:about="">
        <dc:format>image/svg+xml</dc:format>
        <dc:type
           rdf:resource="http://purl.org/dc/dcmitype/StillImage" />
        <dc:title />
      </cc:Work>
    </rdf:RDF>
  </metadata>
  <g
     transform="translate(-508.57143,-142.9337)"
     id="layer1">
    <path
       transform="matrix(-0.70460278,0.70960194,-0.70960194,-0.70460278,0,0)"
       d="m -56.033295,-744.44427 c -3e-6,71.40252 -38.092796,137.38117 -99.929195,173.08243 -61.8364,35.70126 -138.02198,35.70126 -199.85838,0 -61.8364,-35.70126 -99.92919,-101.67992 -99.92919,-173.08244 l 206.51591,-188.13992 z"
       id="path4144"
       style="fill:#007bb6;fill-opacity:1;fill-rule:nonzero;stroke:none;stroke-width:0.28299996;stroke-miterlimit:4;stroke-dasharray:none;stroke-opacity:1"
       inkscape:connector-curvature="0"
       sodipodi:nodetypes="cssccc" />
    <path
       transform="matrix(0.70460278,-0.70960194,0.70960194,0.70460278,0,0)"
       d="m 455.76974,744.42596 a 199.85835,199.85835 0 0 1 -99.92917,173.08242 199.85835,199.85835 0 0 1 -199.85836,-10e-6 199.85835,199.85835 0 0 1 -99.92917,-173.08241 l 199.85835,0 z"
       id="path4144-8"
       style="fill:#0071a8;fill-opacity:1;fill-rule:nonzero;stroke:none;stroke-width:0.28299996;stroke-miterlimit:4;stroke-dasharray:none;stroke-opacity:1" />
    <g
       transform="matrix(2.1827371,0,0,2.1827371,-372.89843,187.37873)"
       id="g4191">
      <g
         id="g4193">
        <g
           id="g4195">
          <g
             id="g4197">
            <g
               id="g4199">
              <g
                 id="g4203" />
            </g>
            <path
               style="fill:#ffffff"
               d="m 445.638,53.985 21.359,0 0,68.722 -21.359,0 0,-68.722 z m 10.684,-34.16 c 6.828,0 12.377,5.549 12.377,12.38 0,6.837 -5.549,12.386 -12.377,12.386 -6.846,0 -12.387,-5.549 -12.387,-12.386 10e-4,-6.83 5.542,-12.38 12.387,-12.38"
               id="path4217" />
            <path
               style="fill:#ffffff"
               d="m 480.394,53.985 20.485,0 0,9.39 0.286,0 c 2.852,-5.403 9.818,-11.099 20.209,-11.099 21.628,0 25.621,14.234 25.621,32.736 l 0,37.694 -21.344,0 0,-33.42 c 0,-7.969 -0.146,-18.22 -11.099,-18.22 -11.113,0 -12.819,8.681 -12.819,17.644 l 0,33.996 -21.34,0 0,-68.721 z"
               id="path4219" />
          </g>
        </g>
      </g>
    </g>
  </g>
</svg>
