<?xml version="1.0" encoding="UTF-8" standalone="no"?>
<svg
   xmlns:dc="http://purl.org/dc/elements/1.1/"
   xmlns:cc="http://creativecommons.org/ns#"
   xmlns:rdf="http://www.w3.org/1999/02/22-rdf-syntax-ns#"
   xmlns:svg="http://www.w3.org/2000/svg"
   xmlns="http://www.w3.org/2000/svg"
   version="1.1"
   id="svg2"
   viewBox="0 0 399.99998 399.99998"
   height="400"
   width="400">
  <defs
     id="defs4" />
  <metadata
     id="metadata7">
    <rdf:RDF>
      <cc:Work
         rdf:about="">
        <dc:format>image/svg+xml</dc:format>
        <dc:type
           rdf:resource="http://purl.org/dc/dcmitype/StillImage" />
        <dc:title></dc:title>
      </cc:Work>
    </rdf:RDF>
  </metadata>
  <g
     transform="translate(-508.57143,-142.9337)"
     id="layer1">
    <path
       transform="matrix(-0.70460278,0.70960194,-0.70960194,-0.70460278,0,0)"
       d="m -56.033295,-744.44427 a 199.85838,199.85838 0 0 1 -99.929195,173.08243 199.85838,199.85838 0 0 1 -199.85838,0 199.85838,199.85838 0 0 1 -99.92919,-173.08244 l 199.85838,1e-5 z"
       id="path4144"
       style="fill:#ff1c00;fill-opacity:1;fill-rule:nonzero;stroke:none;stroke-width:0.28299996;stroke-miterlimit:4;stroke-dasharray:none;stroke-opacity:1" />
    <path
       transform="matrix(0.70460278,-0.70960194,0.70960194,0.70460278,0,0)"
       d="m 455.76974,744.42596 a 199.85835,199.85835 0 0 1 -99.92917,173.08242 199.85835,199.85835 0 0 1 -199.85836,-10e-6 199.85835,199.85835 0 0 1 -99.92917,-173.08241 l 199.85835,0 z"
       id="path4144-8"
       style="fill:#cc190f;fill-opacity:1;fill-rule:nonzero;stroke:none;stroke-width:0.28299996;stroke-miterlimit:4;stroke-dasharray:none;stroke-opacity:1" />
    <path
       id="path4479"
       d=""
       style="fill:#000000" />
    <path
       id="path4477"
       d=""
       style="fill:#000000" />
    <path
       style="fill:#ffffff;fill-opacity:1;stroke:#ffffff;stroke-opacity:1"
       d="m 595.56967,405.70032 0,-125.53328 q 0,-0.21794 0.65382,-4.14085 l 73.88156,63.20252 -73.66362,70.8304 q -0.87176,-3.05115 -0.87176,-4.35879 z m 9.80729,-138.39172 q 1.52557,-0.65382 3.70497,-0.65382 l 198.97896,0 q 1.96145,0 3.92291,0.65382 l -74.09949,63.42046 -9.80729,7.84583 -19.39663,15.90959 -19.39664,-15.90959 -9.80729,-7.84583 z m 0.21794,151.25016 74.31744,-71.26628 28.76805,23.31954 28.76804,-23.31954 74.31743,71.26628 q -1.74352,0.65382 -3.70497,0.65382 l -198.97896,0 q -1.74352,0 -3.48703,-0.65382 z m 141.6608,-79.33005 73.66363,-63.20252 q 0.65382,1.96145 0.65382,4.14085 l 0,125.53328 q 0,1.96145 -0.65382,4.35879 z"
       id="path5089" />
  </g>
</svg>
