<?xml version="1.0" encoding="UTF-8" standalone="no"?>
<svg
   xmlns:dc="http://purl.org/dc/elements/1.1/"
   xmlns:cc="http://creativecommons.org/ns#"
   xmlns:rdf="http://www.w3.org/1999/02/22-rdf-syntax-ns#"
   xmlns:svg="http://www.w3.org/2000/svg"
   xmlns="http://www.w3.org/2000/svg"
   xmlns:sodipodi="http://sodipodi.sourceforge.net/DTD/sodipodi-0.dtd"
   xmlns:inkscape="http://www.inkscape.org/namespaces/inkscape"
   version="1.1"
   id="svg2"
   viewBox="0 0 399.99998 399.99998"
   height="400"
   width="400"
   inkscape:version="0.91 r13725"
   sodipodi:docname="researchgate.svg">
  <sodipodi:namedview
     pagecolor="#ffffff"
     bordercolor="#666666"
     borderopacity="1"
     objecttolerance="10"
     gridtolerance="10"
     guidetolerance="10"
     inkscape:pageopacity="0"
     inkscape:pageshadow="2"
     inkscape:window-width="1920"
     inkscape:window-height="1011"
     id="namedview11"
     showgrid="false"
     inkscape:zoom="0.59"
     inkscape:cx="203.38983"
     inkscape:cy="200"
     inkscape:window-x="1600"
     inkscape:window-y="32"
     inkscape:window-maximized="1"
     inkscape:current-layer="layer1" />
  <defs
     id="defs4" />
  <metadata
     id="metadata7">
    <rdf:RDF>
      <cc:Work
         rdf:about="">
        <dc:format>image/svg+xml</dc:format>
        <dc:type
           rdf:resource="http://purl.org/dc/dcmitype/StillImage" />
        <dc:title />
      </cc:Work>
    </rdf:RDF>
  </metadata>
  <g
     transform="translate(-508.57143,-142.9337)"
     id="layer1">
    <path
       transform="matrix(-0.70460278,0.70960194,-0.70960194,-0.70460278,0,0)"
       d="m -56.033295,-744.44427 a 199.85838,199.85838 0 0 1 -99.929195,173.08243 199.85838,199.85838 0 0 1 -199.85838,0 199.85838,199.85838 0 0 1 -99.92919,-173.08244 l 199.85838,1e-5 z"
       id="path4144"
       style="fill:#00d0af;fill-opacity:1;fill-rule:nonzero;stroke:none;stroke-width:0.28299996;stroke-miterlimit:4;stroke-dasharray:none;stroke-opacity:1" />
    <path
       transform="matrix(0.70460278,-0.70960194,0.70960194,0.70460278,0,0)"
       d="m 455.76974,744.42596 a 199.85835,199.85835 0 0 1 -99.92917,173.08242 199.85835,199.85835 0 0 1 -199.85836,-10e-6 199.85835,199.85835 0 0 1 -99.92917,-173.08241 l 199.85835,0 z"
       id="path4144-8"
       style="fill:#00ba91;fill-opacity:1;fill-rule:nonzero;stroke:none;stroke-width:0.28299996;stroke-miterlimit:4;stroke-dasharray:none;stroke-opacity:1" />
    <path
       id="path4479"
       d=""
       style="fill:#000000" />
    <path
       id="path4477"
       d=""
       style="fill:#000000" />
    <path
       id="path4456"
       d="m 776.80934,230.29183 c -22.04263,0 -33.543,9.58337 -33.543,47.06641 0,37.48303 17.35682,45.57617 31.73242,45.57617 29.17708,0 32.93748,-23.83399 32.93748,-23.83399 -0.033,-2.04252 -0.2461,-25.78906 -0.2461,-25.78906 l -30.1347,0 0,10.22266 17.1445,0 0,11.07422 c 0,0 0.9574,15.01562 -17.8906,15.01562 -18.84803,0 -20.44534,-15.44037 -20.44534,-33.54297 0,-29.92399 8.07271,-35.34797 19.69924,-35.35351 14.6966,-0.007 18.8496,13.41601 18.8496,13.41601 l 11.0742,-6.70898 c 0,0 -7.1351,-17.14258 -29.1777,-17.14258 z m -93.01566,56.04297 -79.4375,0.21289 0.01,7.14648 c 19.6578,0 19.45508,8.81055 19.45508,8.81055 l 0.13281,130.35547 c 0.01,10.22263 -8.95302,11.03631 -9.16602,11.03711 l -10.00195,0.0371 0,8.51953 64.10352,0 0,-8.30664 -14.85352,0 c -9.4772,0 -9.21094,-11.36718 -9.21094,-11.36718 l 0,-55.71876 21.93555,0 c 0,0 38.18656,76.24415 64.31836,76.24415 l 21.93555,0 -0.11133,-7.02735 c -28.40161,0 -66.76172,-72.625 -66.76172,-72.625 0,0 37.05664,-3.66646 37.05664,-43.49219 0,-43.21409 -39.40039,-43.82617 -39.40039,-43.82617 l -0.004,0 z m -38.73242,11.56641 34.37305,0.0742 c 0,0 23.64258,3.46478 23.64258,31.02344 0,29.2152 -25.60157,35.61524 -25.60157,35.61524 l -32.41406,0 0,-66.71289 z"
       style="fill:#ffffff;fill-opacity:1;fill-rule:evenodd;stroke:#ffffff;stroke-width:0.99999988;stroke-linecap:butt;stroke-linejoin:miter;stroke-miterlimit:4;stroke-dasharray:none;stroke-opacity:1" />
  </g>
</svg>
